<svg width="100%" height="58" viewBox="0 0 1200 58" xmlns="http://www.w3.org/2000/svg">
<defs>
<radialGradient id="spaceBg" cx="50%" cy="40%" r="70%"><stop offset="0%" stop-color="#050d1a"/><stop offset="100%" stop-color="#000000"/></radialGradient>
<filter id="glow3"><feGaussianBlur in="SourceGraphic" stdDeviation="3" result="b"/><feMerge><feMergeNode in="b"/><feMergeNode in="SourceGraphic"/></feMerge></filter>
</defs>
<rect width="1200" height="58" fill="url(#spaceBg)"/>
<style>@keyframes breathe{0%,100%{opacity:0.45}50%{opacity:0.9}}</style>
<rect x="204" y="11" width="122" height="36" rx="5" fill="#4C6FFF" opacity="0.06" filter="url(#glow3)"/>
<rect x="205" y="12" width="120" height="34" rx="4" fill="#050d1a" stroke="#4C6FFF" stroke-width="0.75" stroke-opacity="0.45"/>
<rect x="205" y="12" width="2.5" height="34" rx="1" fill="#4C6FFF" opacity="0.5"/>
<text x="268" y="34" font-family="'Segoe UI',sans-serif" font-size="10.5" fill="#9BA3C7" text-anchor="middle" letter-spacing="1">Go</text>
<rect x="338" y="11" width="122" height="36" rx="5" fill="#4C6FFF" opacity="0.06" filter="url(#glow3)"/>
<rect x="339" y="12" width="120" height="34" rx="4" fill="#050d1a" stroke="#4C6FFF" stroke-width="0.75" stroke-opacity="0.45"/>
<rect x="339" y="12" width="2.5" height="34" rx="1" fill="#4C6FFF" opacity="0.5"/>
<text x="402" y="34" font-family="'Segoe UI',sans-serif" font-size="10.5" fill="#9BA3C7" text-anchor="middle" letter-spacing="1">Node.js</text>
<rect x="472" y="11" width="122" height="36" rx="5" fill="#4C6FFF" opacity="0.06" filter="url(#glow3)"/>
<rect x="473" y="12" width="120" height="34" rx="4" fill="#050d1a" stroke="#4C6FFF" stroke-width="0.75" stroke-opacity="0.45"/>
<rect x="473" y="12" width="2.5" height="34" rx="1" fill="#4C6FFF" opacity="0.5"/>
<text x="536" y="34" font-family="'Segoe UI',sans-serif" font-size="10.5" fill="#9BA3C7" text-anchor="middle" letter-spacing="1">TypeScript</text>
<rect x="606" y="11" width="122" height="36" rx="5" fill="#4C6FFF" opacity="0.06" filter="url(#glow3)"/>
<rect x="607" y="12" width="120" height="34" rx="4" fill="#050d1a" stroke="#4C6FFF" stroke-width="0.75" stroke-opacity="0.45"/>
<rect x="607" y="12" width="2.5" height="34" rx="1" fill="#4C6FFF" opacity="0.5"/>
<text x="670" y="34" font-family="'Segoe UI',sans-serif" font-size="10.5" fill="#9BA3C7" text-anchor="middle" letter-spacing="1">Python</text>
<rect x="740" y="11" width="122" height="36" rx="5" fill="#4C6FFF" opacity="0.06" filter="url(#glow3)"/>
<rect x="741" y="12" width="120" height="34" rx="4" fill="#050d1a" stroke="#4C6FFF" stroke-width="0.75" stroke-opacity="0.45"/>
<rect x="741" y="12" width="2.5" height="34" rx="1" fill="#4C6FFF" opacity="0.5"/>
<text x="804" y="34" font-family="'Segoe UI',sans-serif" font-size="10.5" fill="#9BA3C7" text-anchor="middle" letter-spacing="1">Rust</text>
<rect x="874" y="11" width="122" height="36" rx="5" fill="#4C6FFF" opacity="0.06" filter="url(#glow3)"/>
<rect x="875" y="12" width="120" height="34" rx="4" fill="#050d1a" stroke="#4C6FFF" stroke-width="0.75" stroke-opacity="0.45"/>
<rect x="875" y="12" width="2.5" height="34" rx="1" fill="#4C6FFF" opacity="0.5"/>
<text x="938" y="34" font-family="'Segoe UI',sans-serif" font-size="10.5" fill="#9BA3C7" text-anchor="middle" letter-spacing="1">SwiftUI</text>
</svg>